<?xml version="1.0" encoding="utf-8"?>
<!-- Generator: Adobe Illustrator 17.1.0, SVG Export Plug-In . SVG Version: 6.00 Build 0)  -->
<!DOCTYPE svg PUBLIC "-//W3C//DTD SVG 1.1//EN" "http://www.w3.org/Graphics/SVG/1.1/DTD/svg11.dtd">
<svg version="1.1" id="Layer_1" xmlns="http://www.w3.org/2000/svg" xmlns:xlink="http://www.w3.org/1999/xlink" x="0px" y="0px"
	 width="240px" height="80px" viewBox="0 338.3 240 80" style="enable-background:new 0 338.3 240 80;" xml:space="preserve">
<g>
	<path style="fill:#E63077;" d="M126,381v-30.5l-4.7,0v21.9c-1.8-1.5-4.1-2.5-6.7-2.5c-6.5,0-11.2,6.4-11.2,12.2
		c0,6.7,5.3,12.4,11.3,12.4c6.1,0,11.3-5.8,11.3-12.4C126,381.8,126,381,126,381z M119.4,392.3c-1.1,1-2.9,1.7-4.6,1.7
		c-4.7,0-6.4-3.3-6.7-5.4c-0.3-2.3-0.4-6.7-0.4-7.6c0-4.3,0.4-10.4,6.9-10.4c3.5,0,6.2,1.9,6.7,5.5l0,0.3c0.2,1.5,0.4,4.9,0.4,6.8
		C121.7,388.1,121.1,390.7,119.4,392.3z"/>
	<path style="fill:#E63077;" d="M137.1,390.9v-30.5l-4.7,0v21.9c-1.9-1.5-4.1-2.5-6.7-2.5c-6.5,0-11.2,6.4-11.2,12.2
		c0,6.7,5.3,12.4,11.3,12.4c6.1,0,11.3-5.8,11.3-12.4C137.1,391.7,137.1,390.9,137.1,390.9z M130.5,402.2c-1.1,1-2.9,1.7-4.6,1.7
		c-4.7,0-6.4-3.3-6.7-5.4c-0.3-2.3-0.4-6.7-0.4-7.6c0-4.3,0.4-10.4,6.9-10.4c3.5,0,6.1,1.9,6.7,5.5l0,0.3c0.2,1.5,0.4,4.9,0.4,6.8
		C132.8,398,132.1,400.6,130.5,402.2z"/>
	<path style="fill:#E63077;" d="M46.5,379.7H51c0,0,0.8,2.3,0.9,2.8l5.5,15.5l5-12.1l-1.3-4c-0.3-1.1-0.6-2.2-0.6-2.2h4.4
		c0,0,0.7,2.5,0.9,2.9l4.7,15.1l7.2-17.9l0.8,0c0,0-0.8,2.1-2.3,5.8L69,403.6h-1.1l-5.1-16.4L56,403.6H55l-6.6-18.4
		C46.9,380.9,46.5,379.7,46.5,379.7z"/>
	<path style="fill:#E63077;" d="M101,394.1c-0.5,2.1-0.8,2.9-1.6,4.2c-2,3.4-5.3,5.3-8.9,5.3c-6.4,0-11.2-5.6-11.2-12.7
		c0-6.7,4.7-12.1,10.6-12.1c5.7,0,10.3,4.8,10.9,11.4H84.2c-0.1,3.7-0.1,12.2,6.9,12.2c4.4,0,7.9-3.2,9-8.4H101z M94.3,389.2
		c1.2,0,1.6-0.4,1.6-1.9c0-4.6-2.3-7.6-6-7.6c-2.1,0-3.9,1.3-4.8,3.7c-0.7,1.8-0.9,2.9-1,5.9H94.3z"/>
	<path style="fill:#E63077;" d="M157.5,386.6c2.2-6.1,6.9-7.1,8.5-7.1c1.8,0,3.9,0.8,5,1.9c2.3,2.3,2.4,5.4,2.5,7.6V400
		c0,0.4,0,3.6,0,3.6h-4.2c0,0,0-1.6,0-3.6v-12.4c0-4.6-1.3-6.7-4.1-6.7c-4.5,0-7.8,5-7.8,11.9v7.2c0,1.8,0,3.6,0,3.6h-4.3
		c0,0,0-1.8,0-3.6v-16.5c0-1.6,0-3.8,0-3.8l4.3,0L157.5,386.6L157.5,386.6z"/>
	<path style="fill:#E63077;" d="M183.6,405.5c-4.3-0.9-5.8-2.1-5.8-4.8c0-4.3,4.4-4.4,6.6-4.4c-3.9-2-6-4.9-6-8.2
		c0-4.5,4.7-8.9,9.5-8.9c3.6,0,6.4,2.2,8.1,5.7c-0.1-1.3-0.3-5.6,3.3-5.6c1.7,0,2.8,1.1,2.8,2.7c0,1.4-0.6,2.2-1.6,2.2
		c-0.9,0-1.6-0.8-1.6-1.8c0-0.2,0.3-1.3,0.3-1.6c0-0.3-0.2-0.4-0.6-0.4c-1,0-1.8,1.3-1.8,3.1c0,2.1,0.6,2.9,0.6,5.1
		c0,5.1-4.5,8.8-10.5,8.8c-0.4,0-2.5-0.1-2.9-0.1c-4.6,0-4.9,1.7-4.9,2.4c0,1.3,1.2,2,3.7,2c1.2,0,6.9-0.4,8.2-0.4
		c4,0,6,0.6,7.9,2.5c1.5,1.3,2.1,2.9,2.1,4.9c0,5.1-5.1,8.7-12.5,8.7c-6.9,0-12.1-2.8-12.1-6.5c0-2.4,1.5-3.6,5.9-4.9L183.6,405.5z
		 M179.1,410.7c0,3.3,3.7,5.6,9.3,5.6c6.4,0,11.3-3.1,11.3-7.1c0-1.2-0.9-2.5-2.2-3c-1.1-0.4-2.6-0.6-5-0.6
		C183.2,405.7,179.1,407.2,179.1,410.7z M193.3,388.4c0-5.6-1.8-8.3-5.5-8.3c-3.5,0-5.2,2.8-5.2,8.2c0,5.4,1.8,8.2,5.2,8.2
		C191.4,396.5,193.3,393.7,193.3,388.4z"/>
	<rect x="143.2" y="379.7" style="fill:#E63077;" width="4" height="23.9"/>
	<path style="fill:#E63077;" d="M220.1,396.9c0-4.6-3-6.2-8.5-7.9c-3.1-0.9-6.6-2.2-6.6-5c0-2.3,2.7-4.1,5.4-4.1h0.1
		c1.9-0.1,5.4,0.2,7.3,2.8l0.8-0.6c-2.9-4.1-8.9-3.2-9.6-3.1l0,0c-3.1,0.6-5.7,3.4-5.7,6.6c0,1.7,0.3,3.1,1.3,4.2
		c1.2,1.1,1.9,2,6.9,3.6c5.2,1.7,6.7,3,6.7,5.6c0,2-1.9,3.6-4.2,4l0,0c-0.2,0-6.1,1-8.6-2.7l-0.8,0.6c2.9,4.1,8.9,3.2,9.6,3.1l0,0
		C217.6,403.4,220.1,400.6,220.1,396.9z"/>
	<g>
		<path style="fill:#F495B2;" d="M33.5,373.1c1.7,0,4.4-1.4,6.3-3.2l0.6,1.4c-2.3,2.6-5.7,4.6-8.7,4.6c-5.7,0-8.6-5.7-7.4-12.7
			c1.4-7.3,7-12.6,11.9-12.6c3.7,0,5.7,2.7,5,5.9c-0.6,3.6-4.6,7.9-13.2,9.7C27.9,370.4,29.7,373.1,33.5,373.1z M37.7,356.6
			c0.3-1.8-0.3-3.2-2.1-3.2c-3.2,0-6.2,3.7-7.3,9.9c-0.1,0.4-0.1,0.8-0.2,1.1C34.2,362.9,37.2,359.3,37.7,356.6z"/>
		<path style="fill:#F495B2;" d="M50.2,375.9c-5.8,0-8.3-5.7-7.2-12.7c1.3-7,7-12.6,12.8-12.6c1.9,0,3,0.3,4.5,1.2h3.8l-3.2,18.6
			c-0.3,1.6-0.2,2.8,0.8,2.8c0.8,0,2.2-1,2.8-1.5v1.6c-1.4,1.4-3.3,2.4-4.6,2.4c-1.9,0-2.9-1.2-3-3.2
			C55,374.4,52.3,375.9,50.2,375.9z M59.7,354.5c-0.8-0.8-2.1-1.7-4.3-1.7c-4.1,0-7,4.9-7.9,10.4c-1,5.5,0,9.9,3.9,9.9
			c2.6,0,5.4-2.7,6.1-6.4L59.7,354.5z"/>
		<path style="fill:#F495B2;" d="M72.2,375.9c-4.3,0-6.3-2.8-5.9-4.7c0.2-1,1-1.6,1.9-1.6c2.6,0,0.1,4.1,4.8,4.1
			c2,0,3.5-1.8,3.7-3.3c0.3-1.9-1-3.9-2-4.8l-2.5-2.4c-1.6-1.5-2.7-4.1-2.3-6.3c0.5-3.1,3-6.3,7.5-6.3c3.7,0,4.9,2.5,4.7,4.1
			c-0.1,0.8-0.8,1.4-1.5,1.4c-2.4,0-0.3-3.6-3.9-3.6c-1.5,0-3.1,1.2-3.4,3c-0.3,1.8,0.4,2.9,2.1,4.5l2.5,2.3
			c1.8,1.7,2.7,4.3,2.3,6.4C79.3,373.4,75.5,375.9,72.2,375.9z"/>
		<path style="fill:#F495B2;" d="M97.2,367.9c5.5-6.9,7.3-11.2,7.2-14.2c-0.1-2.8-1.7-3.6-3.1-3.6c-1.3,0-2.1,0.7-2.1,1.9
			c0.1,2,2.4,2.4,2.5,5.1c0.1,2.3-2.2,5.7-4.9,8.9l-5.4-13c-0.7-1.7-1.5-2.5-2.8-2.5c-3.4,0.1-4.9,6.4-4.9,7.3
			c0,0.2,0.1,0.4,0.3,0.4c0.3,0,0.4-0.4,0.7-1.3c0.7-2.3,1.3-3.2,2.2-3.3c1.2,0,1.2,0.8,3.1,5.6c2,5.1,2.9,7.3,3.4,8.4l-1.2,7h-3.8
			v0.8h11.3v-0.8H96L97.2,367.9z"/>
	</g>
	<circle style="fill:#F495B2;" cx="145.1" cy="368.7" r="2.4"/>
	<polygon style="fill:#E63077;" points="18.8,359.7 15,351.4 6,352.1 14.2,348.3 13.5,339.3 17.3,347.5 26.4,346.8 18.2,350.6 	"/>
	<g>
		<path style="fill:#F495B2;" d="M28.4,410.4l1.2-2.3h0.9l-1.6,3v1.9H28v-1.9l-1.6-3.1h0.9L28.4,410.4z"/>
		<path style="fill:#F495B2;" d="M37.2,410.6c0,0.8-0.2,1.4-0.6,1.9c-0.4,0.4-1,0.7-1.7,0.7c-0.7,0-1.3-0.2-1.7-0.7
			c-0.4-0.4-0.6-1.1-0.6-1.9c0-0.8,0.2-1.4,0.6-1.9c0.4-0.4,1-0.7,1.7-0.7c0.7,0,1.3,0.2,1.7,0.7C37,409.1,37.2,409.8,37.2,410.6z
			 M33.5,410.6c0,0.6,0.1,1.1,0.4,1.4c0.2,0.3,0.6,0.5,1.1,0.5c0.5,0,0.8-0.2,1.1-0.5s0.4-0.8,0.4-1.4c0-0.6-0.1-1.1-0.4-1.4
			c-0.2-0.3-0.6-0.5-1.1-0.5c-0.5,0-0.8,0.2-1.1,0.5C33.6,409.5,33.5,410,33.5,410.6z"/>
		<path style="fill:#F495B2;" d="M43.9,408.1v3.2c0,0.4-0.1,0.7-0.2,1c-0.2,0.3-0.4,0.5-0.7,0.6c-0.3,0.1-0.6,0.2-1.1,0.2
			c-0.6,0-1.1-0.2-1.4-0.5c-0.3-0.3-0.5-0.8-0.5-1.3v-3.2h0.8v3.1c0,0.4,0.1,0.7,0.3,0.9c0.2,0.2,0.5,0.3,0.9,0.3
			c0.8,0,1.1-0.4,1.1-1.2v-3.1L43.9,408.1L43.9,408.1z"/>
		<path style="fill:#F495B2;" d="M47.6,411.1v2h-0.8v-5h1.4c0.6,0,1.1,0.1,1.4,0.4c0.3,0.2,0.5,0.6,0.5,1.1c0,0.6-0.3,1.1-1,1.3
			l1.4,2.2h-0.9l-1.2-2L47.6,411.1L47.6,411.1z M47.6,410.4h0.6c0.4,0,0.6-0.1,0.8-0.2c0.2-0.1,0.3-0.3,0.3-0.6
			c0-0.3-0.1-0.5-0.3-0.6c-0.2-0.1-0.5-0.2-0.8-0.2h-0.5C47.6,408.8,47.6,410.4,47.6,410.4z"/>
		<path style="fill:#F495B2;" d="M59.7,409.6c0,0.5-0.2,0.9-0.5,1.2c-0.3,0.3-0.8,0.4-1.4,0.4h-0.5v1.9h-0.8v-5h1.4
			c0.6,0,1.1,0.1,1.4,0.4C59.6,408.7,59.7,409.1,59.7,409.6z M57.3,410.5h0.4c0.4,0,0.7-0.1,0.9-0.2c0.2-0.1,0.3-0.4,0.3-0.7
			c0-0.3-0.1-0.5-0.3-0.6c-0.2-0.1-0.4-0.2-0.8-0.2h-0.6V410.5z"/>
		<path style="fill:#F495B2;" d="M65.2,413.1h-2.8v-5h2.8v0.7h-2v1.4h1.9v0.7h-1.9v1.6h2V413.1z"/>
		<path style="fill:#F495B2;" d="M68.8,411.1v2H68v-5h1.4c0.6,0,1.1,0.1,1.4,0.4c0.3,0.2,0.5,0.6,0.5,1.1c0,0.6-0.3,1.1-1,1.3
			l1.4,2.2h-0.9l-1.2-2L68.8,411.1L68.8,411.1z M68.8,410.4h0.6c0.4,0,0.6-0.1,0.8-0.2c0.2-0.1,0.3-0.3,0.3-0.6
			c0-0.3-0.1-0.5-0.3-0.6c-0.2-0.1-0.5-0.2-0.8-0.2h-0.5V410.4z"/>
		<path style="fill:#F495B2;" d="M74.9,413.1h-0.8v-5h2.8v0.7h-2v1.6h1.9v0.7h-1.9L74.9,413.1L74.9,413.1z"/>
		<path style="fill:#F495B2;" d="M82.3,413.1h-2.8v-5h2.8v0.7h-2v1.4h1.9v0.7h-1.9v1.6h2V413.1z"/>
		<path style="fill:#F495B2;" d="M87.2,408.7c-0.5,0-0.8,0.2-1.1,0.5c-0.3,0.3-0.4,0.8-0.4,1.4c0,0.6,0.1,1.1,0.4,1.4
			c0.3,0.3,0.6,0.5,1.1,0.5c0.2,0,0.4,0,0.6-0.1c0.2,0,0.4-0.1,0.6-0.2v0.7c-0.4,0.1-0.8,0.2-1.3,0.2c-0.7,0-1.3-0.2-1.7-0.7
			c-0.4-0.4-0.6-1.1-0.6-1.9c0-0.5,0.1-1,0.3-1.4s0.5-0.7,0.8-0.9c0.4-0.2,0.8-0.3,1.2-0.3c0.5,0,1,0.1,1.4,0.3l-0.3,0.7
			c-0.2-0.1-0.3-0.1-0.5-0.2C87.6,408.8,87.4,408.7,87.2,408.7z"/>
		<path style="fill:#F495B2;" d="M92.9,413.1h-0.8v-4.3h-1.4v-0.7h3.7v0.7h-1.4L92.9,413.1L92.9,413.1z"/>
		<path style="fill:#F495B2;" d="M104.3,410.5c0,0.8-0.2,1.4-0.7,1.9s-1.1,0.7-1.9,0.7h-1.4v-5h1.5c0.8,0,1.4,0.2,1.8,0.6
			C104.1,409.2,104.3,409.8,104.3,410.5z M103.5,410.6c0-1.2-0.6-1.8-1.7-1.8h-0.7v3.6h0.6C102.9,412.4,103.5,411.8,103.5,410.6z"/>
		<path style="fill:#F495B2;" d="M110.2,413.1l-0.5-1.4h-1.9l-0.5,1.4h-0.8l1.8-5h0.9l1.8,5H110.2z M109.4,411l-0.5-1.4
			c0-0.1-0.1-0.2-0.1-0.4c-0.1-0.2-0.1-0.3-0.1-0.4c-0.1,0.3-0.1,0.6-0.3,0.9L108,411C108,411,109.4,411,109.4,411z"/>
		<path style="fill:#F495B2;" d="M114.8,410.4l1.2-2.3h0.9l-1.6,3v1.9h-0.8v-1.9l-1.6-3.1h0.9L114.8,410.4z"/>
		<path style="fill:#F495B2;" d="M124.8,413.1l-1.4-4.1h0c0,0.6,0.1,1.2,0.1,1.7v2.4h-0.7v-5h1.1l1.4,4h0l1.4-4h1.1v5H127v-2.5
			c0-0.2,0-0.6,0-1c0-0.4,0-0.6,0-0.7h0l-1.5,4.1L124.8,413.1L124.8,413.1z"/>
		<path style="fill:#F495B2;" d="M133.8,413.1l-0.5-1.4h-1.9l-0.5,1.4h-0.8l1.8-5h0.9l1.8,5H133.8z M133.1,411l-0.5-1.4
			c0-0.1-0.1-0.2-0.1-0.4c-0.1-0.2-0.1-0.3-0.1-0.4c-0.1,0.3-0.1,0.6-0.3,0.9l-0.4,1.3C131.7,411,133.1,411,133.1,411z"/>
		<path style="fill:#F495B2;" d="M141.1,410.5c0,0.8-0.2,1.4-0.7,1.9c-0.5,0.4-1.1,0.7-1.9,0.7h-1.4v-5h1.5c0.8,0,1.4,0.2,1.8,0.6
			C140.8,409.2,141.1,409.8,141.1,410.5z M140.2,410.6c0-1.2-0.6-1.8-1.7-1.8h-0.7v3.6h0.6C139.6,412.4,140.2,411.8,140.2,410.6z"/>
		<path style="fill:#F495B2;" d="M146.6,413.1h-2.8v-5h2.8v0.7h-2v1.4h1.9v0.7h-1.9v1.6h2V413.1z"/>
		<path style="fill:#F495B2;" d="M155.7,413.1h-2.8v-5h2.8v0.7h-2v1.4h1.9v0.7h-1.9v1.6h2V413.1z"/>
		<path style="fill:#F495B2;" d="M161.5,413.1l-0.5-1.4h-1.9l-0.5,1.4h-0.8l1.8-5h0.9l1.8,5H161.5z M160.8,411l-0.5-1.4
			c0-0.1-0.1-0.2-0.1-0.4c-0.1-0.2-0.1-0.3-0.1-0.4c-0.1,0.3-0.1,0.6-0.3,0.9l-0.4,1.3C159.4,411,160.8,411,160.8,411z"/>
		<path style="fill:#F495B2;" d="M167.6,411.7c0,0.4-0.2,0.8-0.5,1c-0.3,0.3-0.8,0.4-1.3,0.4c-0.6,0-1-0.1-1.4-0.3v-0.8
			c0.2,0.1,0.5,0.2,0.7,0.3c0.3,0.1,0.5,0.1,0.7,0.1c0.3,0,0.6-0.1,0.7-0.2s0.2-0.3,0.2-0.5c0-0.2-0.1-0.3-0.2-0.5
			c-0.1-0.1-0.4-0.3-0.9-0.5c-0.4-0.2-0.8-0.4-0.9-0.6c-0.2-0.2-0.3-0.5-0.3-0.8c0-0.4,0.1-0.7,0.4-1c0.3-0.2,0.7-0.4,1.2-0.4
			c0.5,0,0.9,0.1,1.4,0.3l-0.3,0.7c-0.4-0.2-0.8-0.3-1.2-0.3c-0.3,0-0.5,0.1-0.6,0.2c-0.1,0.1-0.2,0.3-0.2,0.5c0,0.1,0,0.2,0.1,0.3
			c0.1,0.1,0.1,0.2,0.3,0.3c0.1,0.1,0.3,0.2,0.7,0.3c0.4,0.2,0.6,0.3,0.8,0.4c0.2,0.1,0.3,0.3,0.4,0.4
			C167.6,411.3,167.6,411.5,167.6,411.7z"/>
		<path style="fill:#F495B2;" d="M171.7,410.4l1.2-2.3h0.9l-1.6,3v1.9h-0.8v-1.9l-1.6-3.1h0.9L171.7,410.4z"/>
	</g>
	<g>
		<path style="fill:#E63077;" d="M203.3,412.6c0-0.2,0-0.3,0.1-0.4c0.1-0.1,0.2-0.1,0.4-0.1c0.2,0,0.3,0,0.4,0.1
			c0.1,0.1,0.1,0.2,0.1,0.4c0,0.2,0,0.3-0.1,0.4c-0.1,0.1-0.2,0.1-0.4,0.1s-0.3,0-0.4-0.1C203.3,412.9,203.3,412.8,203.3,412.6z"/>
		<path style="fill:#E63077;" d="M207.8,408.7c-0.5,0-0.8,0.2-1.1,0.5c-0.3,0.3-0.4,0.8-0.4,1.4c0,0.6,0.1,1.1,0.4,1.4
			c0.3,0.3,0.6,0.5,1.1,0.5c0.2,0,0.4,0,0.6-0.1c0.2,0,0.4-0.1,0.6-0.2v0.7c-0.4,0.1-0.8,0.2-1.3,0.2c-0.7,0-1.3-0.2-1.7-0.7
			s-0.6-1.1-0.6-1.9c0-0.5,0.1-1,0.3-1.3c0.2-0.4,0.5-0.7,0.8-0.9c0.4-0.2,0.8-0.3,1.3-0.3c0.5,0,1,0.1,1.4,0.3l-0.3,0.7
			c-0.2-0.1-0.3-0.1-0.5-0.2C208.2,408.8,208,408.7,207.8,408.7z"/>
		<path style="fill:#E63077;" d="M214.8,410.6c0,0.8-0.2,1.4-0.6,1.9c-0.4,0.4-1,0.7-1.7,0.7c-0.7,0-1.3-0.2-1.7-0.7
			c-0.4-0.4-0.6-1.1-0.6-1.9s0.2-1.4,0.6-1.9c0.4-0.4,1-0.7,1.7-0.7c0.7,0,1.3,0.2,1.7,0.7C214.6,409.1,214.8,409.8,214.8,410.6z
			 M211.1,410.6c0,0.6,0.1,1.1,0.4,1.4c0.2,0.3,0.6,0.5,1.1,0.5c0.5,0,0.8-0.2,1.1-0.5c0.2-0.3,0.4-0.8,0.4-1.4
			c0-0.6-0.1-1.1-0.4-1.4c-0.2-0.3-0.6-0.5-1.1-0.5c-0.5,0-0.8,0.2-1.1,0.5C211.2,409.5,211.1,410,211.1,410.6z"/>
		<path style="fill:#E63077;" d="M218.4,413l-1.4-4.1h0c0,0.6,0.1,1.2,0.1,1.7v2.4h-0.7v-4.9h1.1l1.4,3.9h0l1.4-3.9h1.1v4.9h-0.8
			v-2.4c0-0.2,0-0.6,0-1c0-0.4,0-0.6,0-0.7h0l-1.5,4.1L218.4,413L218.4,413z"/>
		<path style="fill:#E63077;" d="M222.8,412.6c0-0.2,0-0.3,0.1-0.4s0.2-0.1,0.4-0.1c0.2,0,0.3,0,0.4,0.1c0.1,0.1,0.1,0.2,0.1,0.4
			c0,0.2,0,0.3-0.1,0.4c-0.1,0.1-0.2,0.1-0.4,0.1s-0.3,0-0.4-0.1C222.8,412.9,222.8,412.8,222.8,412.6z"/>
		<path style="fill:#E63077;" d="M228.3,413l-0.5-1.4h-1.9l-0.5,1.4h-0.9l1.8-5h0.9l1.8,5H228.3z M227.6,411l-0.5-1.3
			c0-0.1-0.1-0.2-0.1-0.4c-0.1-0.2-0.1-0.3-0.1-0.4c-0.1,0.3-0.2,0.6-0.3,0.9l-0.4,1.3L227.6,411L227.6,411z"/>
		<path style="fill:#E63077;" d="M234,408.1v3.2c0,0.4-0.1,0.7-0.2,1c-0.2,0.3-0.4,0.5-0.7,0.6c-0.3,0.1-0.7,0.2-1.1,0.2
			c-0.6,0-1.1-0.2-1.4-0.5c-0.3-0.3-0.5-0.8-0.5-1.3v-3.2h0.8v3.1c0,0.4,0.1,0.7,0.3,0.9c0.2,0.2,0.5,0.3,0.9,0.3
			c0.8,0,1.1-0.4,1.1-1.2v-3.1L234,408.1L234,408.1z"/>
	</g>
</g>
</svg>
