<?xml version="1.0" encoding="utf-8"?>
<!-- Generator: Adobe Illustrator 18.1.1, SVG Export Plug-In . SVG Version: 6.00 Build 0)  -->
<svg version="1.1" id="Layer_1" xmlns="http://www.w3.org/2000/svg" xmlns:xlink="http://www.w3.org/1999/xlink" x="0px" y="0px"
	 viewBox="0 0 190 110" enable-background="new 0 0 190 110" xml:space="preserve">
<g>
	<g>
		<g>
			<path fill="#FFFFFF" d="M82.4,50.7h6c0,0,1.1,3.1,1.2,3.7l7.3,20.5l6.6-16l-1.7-5.3c-0.4-1.4-0.9-2.9-0.9-2.9h5.8
				c0,0,1,3.3,1.1,3.9l6.3,20l9.5-23.8l1.1,0c0,0-1.1,2.7-3,7.7l-9.5,24h-1.5L104,60.7l-8.9,21.7h-1.4L84.9,58
				C82.9,52.3,82.4,50.7,82.4,50.7z"/>
			<path opacity="0.65" fill="#FFFFFF" d="M75.8,66.4c2.3,0,5.9-1.8,8.3-4.2L85,64c-3,3.4-7.6,6-11.5,6c-7.6,0-11.4-7.6-9.8-16.9
				c1.8-9.7,9.3-16.8,15.8-16.8c4.9,0,7.5,3.6,6.7,7.9c-0.8,4.8-6.1,10.5-17.5,12.9C68.5,62.8,70.8,66.4,75.8,66.4z M81.5,44.4
				c0.4-2.4-0.5-4.3-2.7-4.3c-4.2,0-8.2,4.9-9.7,13.2c-0.1,0.6-0.2,1-0.3,1.5C76.8,52.8,80.7,48.1,81.5,44.4z"/>
			<polygon fill="#FFFFFF" points="114.9,55.1 109.5,43.4 96.6,44.4 108.3,38.9 107.3,26 112.7,37.8 125.6,36.8 113.9,42.2 			"/>
		</g>
	</g>
</g>
</svg>
