<?xml version="1.0" encoding="utf-8"?>
<!-- Generator: Adobe Illustrator 17.1.0, SVG Export Plug-In . SVG Version: 6.00 Build 0)  -->
<!DOCTYPE svg PUBLIC "-//W3C//DTD SVG 1.1//EN" "http://www.w3.org/Graphics/SVG/1.1/DTD/svg11.dtd">
<svg version="1.1" id="Layer_1" xmlns="http://www.w3.org/2000/svg" xmlns:xlink="http://www.w3.org/1999/xlink" x="0px" y="0px"
	 width="240px" height="80px" viewBox="0 0 240 80" enable-background="new 0 0 240 80" xml:space="preserve">
<g>
	<path fill="#E63077" d="M129.2,42.7V12.2l-4.7,0v22c-1.9-1.5-4.1-2.5-6.7-2.5c-6.5,0-11.2,6.4-11.2,12.2c0,6.7,5.3,12.4,11.3,12.4
		c6.1,0,11.3-5.8,11.3-12.4C129.2,43.5,129.2,42.7,129.2,42.7z M122.5,54.1c-1.1,1-2.9,1.7-4.6,1.7c-4.7,0-6.4-3.3-6.7-5.4
		c-0.3-2.3-0.4-6.7-0.4-7.6c0-4.3,0.4-10.4,7-10.4c3.5,0,6.2,1.9,6.7,5.5l0,0.3c0.2,1.5,0.4,4.9,0.4,6.8
		C124.9,49.8,124.2,52.4,122.5,54.1z"/>
	<path fill="#E63077" d="M140.2,52.6V22.1l-4.7,0v22c-1.9-1.5-4.1-2.5-6.7-2.5c-6.5,0-11.2,6.4-11.2,12.2c0,6.7,5.3,12.4,11.3,12.4
		c6.1,0,11.3-5.8,11.3-12.4C140.2,53.4,140.2,52.6,140.2,52.6z M133.6,64c-1.1,1-2.9,1.7-4.6,1.7c-4.7,0-6.4-3.3-6.7-5.4
		c-0.3-2.3-0.4-6.7-0.4-7.6c0-4.3,0.4-10.4,7-10.4c3.5,0,6.2,1.9,6.7,5.5l0,0.3c0.2,1.5,0.4,4.9,0.4,6.8
		C135.9,59.8,135.3,62.4,133.6,64z"/>
	<path fill="#E63077" d="M49.5,41.4H54c0,0,0.8,2.3,0.9,2.8l5.5,15.5l5-12.1l-1.3-4c-0.3-1.1-0.6-2.2-0.6-2.2h4.4
		c0,0,0.7,2.5,0.9,2.9l4.8,15.1l7.2-18l0.9,0c0,0-0.8,2.1-2.3,5.8l-7.2,18.1H71L65.8,49l-6.7,16.4H58l-6.6-18.4
		C49.9,42.6,49.5,41.4,49.5,41.4z"/>
	<path fill="#E63077" d="M104.1,55.8c-0.5,2.1-0.8,2.9-1.6,4.2c-2,3.4-5.3,5.3-8.9,5.3c-6.4,0-11.2-5.6-11.2-12.7
		c0-6.7,4.8-12.1,10.6-12.1c5.7,0,10.3,4.8,10.9,11.5H87.3c-0.1,3.7-0.1,12.2,6.9,12.2c4.4,0,7.9-3.2,9.1-8.4H104.1z M97.4,50.9
		c1.2,0,1.6-0.4,1.6-1.9c0-4.6-2.3-7.7-6-7.7c-2.1,0-3.9,1.3-4.8,3.7c-0.7,1.8-0.9,2.9-1,5.9H97.4z"/>
	<path fill="#E63077" d="M160.7,48.3c2.2-6.1,6.9-7.2,8.6-7.2c1.8,0,3.9,0.8,5,1.9c2.3,2.3,2.4,5.4,2.5,7.6v11.1c0,0.4,0,3.6,0,3.6
		h-4.2c0,0,0-1.6,0-3.6V49.3c0-4.6-1.3-6.7-4.1-6.7c-4.5,0-7.8,5-7.8,12v7.2c0,1.8,0,3.6,0,3.6h-4.3c0,0,0-1.8,0-3.6V45.2
		c0-1.6,0-3.8,0-3.8l4.3,0V48.3z"/>
	<path fill="#E63077" d="M186.8,67.3c-4.3-0.9-5.8-2.1-5.8-4.8c0-4.3,4.4-4.4,6.6-4.4c-3.9-2-6-4.9-6-8.2c0-4.5,4.7-8.9,9.5-8.9
		c3.6,0,6.4,2.2,8.1,5.7c-0.1-1.3-0.3-5.6,3.3-5.6c1.7,0,2.9,1.1,2.9,2.7c0,1.4-0.6,2.2-1.6,2.2c-0.9,0-1.6-0.8-1.6-1.8
		c0-0.2,0.3-1.3,0.3-1.6c0-0.3-0.2-0.4-0.6-0.4c-1,0-1.8,1.3-1.8,3.1c0,2.1,0.6,2.9,0.6,5.1c0,5.1-4.5,8.8-10.5,8.8
		c-0.4,0-2.5-0.1-2.9-0.1c-4.6,0-4.9,1.7-4.9,2.4c0,1.3,1.2,2,3.7,2c1.2,0,6.9-0.4,8.2-0.4c4,0,6,0.6,7.9,2.5
		c1.5,1.3,2.1,2.9,2.1,4.9c0,5.1-5.1,8.7-12.5,8.7c-6.9,0-12.1-2.8-12.1-6.5c0-2.4,1.5-3.6,5.9-4.9L186.8,67.3z M182.3,72.5
		c0,3.4,3.7,5.6,9.3,5.6c6.4,0,11.3-3.1,11.3-7.1c0-1.2-0.9-2.5-2.2-3c-1.1-0.4-2.6-0.6-5-0.6C186.4,67.4,182.3,68.9,182.3,72.5z
		 M196.5,50.1c0-5.6-1.8-8.3-5.5-8.3c-3.5,0-5.3,2.9-5.3,8.2c0,5.4,1.8,8.2,5.3,8.2C194.6,58.2,196.5,55.4,196.5,50.1z"/>
	<rect x="146.3" y="41.4" fill="#E63077" width="4" height="23.9"/>
	<path fill="#E63077" d="M223.3,58.6c0-4.6-3-6.2-8.5-7.9c-3.1-0.9-6.7-2.2-6.7-5c0-2.3,2.7-4.1,5.4-4.1h0.1
		c1.9-0.1,5.4,0.2,7.3,2.8l0.8-0.6c-2.9-4.1-9-3.2-9.6-3.1l0,0c-3.1,0.6-5.7,3.4-5.7,6.6c0,1.7,0.3,3.1,1.3,4.2
		c1.2,1.1,1.9,2,6.9,3.6c5.3,1.7,6.7,3,6.7,5.6c0,2-1.9,3.6-4.2,4l0,0c-0.2,0-6.1,1-8.6-2.7l-0.8,0.6c2.9,4.1,9,3.2,9.6,3.1l0,0
		C220.9,65.1,223.3,62.3,223.3,58.6z"/>
	<g>
		<path fill="#F495B2" d="M36.5,34.8c1.7,0,4.4-1.4,6.3-3.2l0.6,1.4c-2.3,2.6-5.7,4.6-8.7,4.6c-5.7,0-8.6-5.7-7.4-12.7
			c1.4-7.3,7-12.6,11.9-12.6c3.7,0,5.7,2.7,5,5.9c-0.6,3.6-4.6,7.9-13.2,9.7C31,32.1,32.7,34.8,36.5,34.8z M40.8,18.2
			c0.3-1.8-0.3-3.2-2.1-3.2c-3.2,0-6.2,3.7-7.3,9.9c-0.1,0.4-0.1,0.8-0.2,1.1C37.3,24.6,40.2,21,40.8,18.2z"/>
		<path fill="#F495B2" d="M53.3,37.6c-5.8,0-8.4-5.7-7.2-12.7c1.3-7,7-12.6,12.8-12.6c1.9,0,3,0.3,4.5,1.2h3.8L63.9,32
			c-0.3,1.6-0.2,2.8,0.8,2.8c0.8,0,2.2-1,2.8-1.5v1.6c-1.4,1.4-3.3,2.4-4.6,2.4c-1.9,0-2.9-1.2-3-3.2C58.1,36.1,55.4,37.6,53.3,37.6
			z M62.8,16.2c-0.8-0.8-2.1-1.7-4.3-1.7c-4.1,0-7,4.9-7.9,10.4c-1,5.5,0,9.9,3.9,9.9c2.6,0,5.5-2.7,6.1-6.4L62.8,16.2z"/>
		<path fill="#F495B2" d="M75.3,37.6c-4.3,0-6.3-2.8-5.9-4.7c0.2-1,1-1.6,1.9-1.6c2.6,0,0.1,4.1,4.8,4.1c2,0,3.5-1.8,3.7-3.3
			c0.3-1.9-1-3.9-2-4.8l-2.5-2.4c-1.6-1.5-2.7-4.1-2.3-6.3c0.5-3.1,3-6.3,7.5-6.3c3.7,0,4.9,2.5,4.7,4.1c-0.1,0.8-0.8,1.4-1.5,1.4
			c-2.4,0-0.3-3.6-3.9-3.6c-1.5,0-3.1,1.2-3.5,3c-0.3,1.8,0.4,2.9,2.1,4.6L81,24c1.8,1.7,2.7,4.3,2.3,6.4
			C82.4,35.2,78.6,37.6,75.3,37.6z"/>
		<path fill="#F495B2" d="M100.3,29.6c5.5-6.9,7.3-11.2,7.2-14.2c-0.1-2.8-1.7-3.6-3.1-3.6c-1.3,0-2.1,0.8-2.1,1.9
			c0.1,2,2.4,2.4,2.5,5.1c0.1,2.3-2.2,5.7-4.9,8.9l-5.4-13c-0.7-1.7-1.6-2.5-2.8-2.5c-3.4,0.1-4.9,6.4-4.9,7.3
			c0,0.2,0.1,0.4,0.3,0.4c0.3,0,0.4-0.4,0.7-1.3c0.7-2.3,1.3-3.2,2.2-3.3c1.2,0,1.2,0.8,3.1,5.6c2,5.1,2.9,7.3,3.4,8.4l-1.2,7h-3.8
			v0.8H103v-0.8h-3.8L100.3,29.6z"/>
	</g>
	<circle fill="#F495B2" cx="148.2" cy="30.4" r="2.4"/>
	<polygon fill="#E63077" points="21.9,21.4 18.1,13.1 9,13.8 17.2,10 16.5,0.9 20.4,9.2 29.4,8.5 21.2,12.3 	"/>
	<g>
		<path fill="#F495B2" d="M31.5,72.1l1.2-2.3h0.9l-1.6,3v1.9h-0.8v-1.9l-1.6-3.1h0.9L31.5,72.1z"/>
		<path fill="#F495B2" d="M40.3,72.3c0,0.8-0.2,1.4-0.6,1.9c-0.4,0.4-1,0.7-1.7,0.7c-0.7,0-1.3-0.2-1.7-0.7
			c-0.4-0.4-0.6-1.1-0.6-1.9s0.2-1.5,0.6-1.9c0.4-0.4,1-0.7,1.7-0.7c0.7,0,1.3,0.2,1.7,0.7C40.1,70.9,40.3,71.5,40.3,72.3z
			 M36.5,72.3c0,0.6,0.1,1.1,0.4,1.4c0.2,0.3,0.6,0.5,1.1,0.5c0.5,0,0.8-0.2,1.1-0.5c0.2-0.3,0.4-0.8,0.4-1.4c0-0.6-0.1-1.1-0.4-1.4
			c-0.2-0.3-0.6-0.5-1.1-0.5c-0.5,0-0.8,0.2-1.1,0.5C36.6,71.3,36.5,71.7,36.5,72.3z"/>
		<path fill="#F495B2" d="M46.9,69.9v3.2c0,0.4-0.1,0.7-0.2,1c-0.2,0.3-0.4,0.5-0.7,0.6c-0.3,0.1-0.6,0.2-1.1,0.2
			c-0.6,0-1.1-0.2-1.4-0.5c-0.3-0.3-0.5-0.8-0.5-1.3v-3.2h0.8V73c0,0.4,0.1,0.7,0.3,0.9c0.2,0.2,0.5,0.3,0.9,0.3
			c0.8,0,1.1-0.4,1.1-1.2v-3.1H46.9z"/>
		<path fill="#F495B2" d="M50.7,72.8v2h-0.8v-5h1.4c0.6,0,1.1,0.1,1.4,0.4c0.3,0.2,0.5,0.6,0.5,1.1c0,0.6-0.3,1.1-1,1.3l1.4,2.2
			h-0.9l-1.2-2H50.7z M50.7,72.2h0.6c0.4,0,0.6-0.1,0.8-0.2c0.2-0.1,0.3-0.3,0.3-0.6c0-0.3-0.1-0.5-0.3-0.6
			c-0.2-0.1-0.5-0.2-0.8-0.2h-0.5V72.2z"/>
		<path fill="#F495B2" d="M62.8,71.4c0,0.5-0.2,0.9-0.5,1.2C62,72.8,61.5,73,60.9,73h-0.5v1.9h-0.8v-5H61c0.6,0,1.1,0.1,1.4,0.4
			C62.7,70.5,62.8,70.9,62.8,71.4z M60.3,72.3h0.4c0.4,0,0.7-0.1,0.9-0.2c0.2-0.1,0.3-0.4,0.3-0.7c0-0.3-0.1-0.5-0.3-0.6
			c-0.2-0.1-0.4-0.2-0.8-0.2h-0.6V72.3z"/>
		<path fill="#F495B2" d="M68.3,74.8h-2.8v-5h2.8v0.7h-2v1.4h1.9v0.7h-1.9v1.6h2V74.8z"/>
		<path fill="#F495B2" d="M71.9,72.8v2h-0.8v-5h1.4c0.6,0,1.1,0.1,1.4,0.4c0.3,0.2,0.5,0.6,0.5,1.1c0,0.6-0.3,1.1-1,1.3l1.4,2.2
			h-0.9l-1.2-2H71.9z M71.9,72.2h0.6c0.4,0,0.6-0.1,0.8-0.2c0.2-0.1,0.3-0.3,0.3-0.6c0-0.3-0.1-0.5-0.3-0.6
			c-0.2-0.1-0.5-0.2-0.8-0.2h-0.5V72.2z"/>
		<path fill="#F495B2" d="M78,74.8h-0.8v-5H80v0.7h-2v1.6h1.9v0.7H78V74.8z"/>
		<path fill="#F495B2" d="M85.4,74.8h-2.8v-5h2.8v0.7h-2v1.4h1.9v0.7h-1.9v1.6h2V74.8z"/>
		<path fill="#F495B2" d="M90.3,70.5c-0.5,0-0.8,0.2-1.1,0.5c-0.3,0.3-0.4,0.8-0.4,1.4c0,0.6,0.1,1.1,0.4,1.4
			c0.3,0.3,0.6,0.5,1.1,0.5c0.2,0,0.4,0,0.6-0.1c0.2,0,0.4-0.1,0.6-0.2v0.7c-0.4,0.1-0.8,0.2-1.3,0.2c-0.7,0-1.3-0.2-1.7-0.7
			c-0.4-0.4-0.6-1.1-0.6-1.9c0-0.5,0.1-1,0.3-1.4c0.2-0.4,0.5-0.7,0.8-0.9c0.4-0.2,0.8-0.3,1.2-0.3c0.5,0,1,0.1,1.4,0.3l-0.3,0.7
			c-0.2-0.1-0.3-0.1-0.5-0.2C90.7,70.5,90.5,70.5,90.3,70.5z"/>
		<path fill="#F495B2" d="M96,74.8h-0.8v-4.3h-1.4v-0.7h3.7v0.7H96V74.8z"/>
		<path fill="#F495B2" d="M107.4,72.3c0,0.8-0.2,1.4-0.7,1.9c-0.5,0.4-1.1,0.7-2,0.7h-1.4v-5h1.5c0.8,0,1.4,0.2,1.8,0.6
			C107.2,70.9,107.4,71.5,107.4,72.3z M106.6,72.3c0-1.2-0.6-1.8-1.7-1.8h-0.7v3.6h0.6C106,74.2,106.6,73.5,106.6,72.3z"/>
		<path fill="#F495B2" d="M113.3,74.8l-0.5-1.4h-1.9l-0.5,1.4h-0.8l1.8-5h0.9l1.8,5H113.3z M112.6,72.8l-0.5-1.4
			c0-0.1-0.1-0.2-0.1-0.4c-0.1-0.2-0.1-0.3-0.1-0.4c-0.1,0.3-0.1,0.6-0.3,0.9l-0.4,1.3H112.6z"/>
		<path fill="#F495B2" d="M117.9,72.1l1.2-2.3h0.9l-1.6,3v1.9h-0.8v-1.9l-1.6-3.1h0.9L117.9,72.1z"/>
		<path fill="#F495B2" d="M128,74.8l-1.4-4.2h0c0,0.6,0.1,1.2,0.1,1.7v2.4h-0.7v-5h1.1l1.4,4h0l1.4-4h1.1v5h-0.8v-2.5
			c0-0.2,0-0.6,0-1c0-0.4,0-0.6,0-0.7h0l-1.5,4.1H128z"/>
		<path fill="#F495B2" d="M137,74.8l-0.5-1.4h-1.9l-0.5,1.4h-0.8l1.8-5h0.9l1.8,5H137z M136.3,72.8l-0.5-1.4c0-0.1-0.1-0.2-0.1-0.4
			c-0.1-0.2-0.1-0.3-0.1-0.4c-0.1,0.3-0.1,0.6-0.3,0.9l-0.4,1.3H136.3z"/>
		<path fill="#F495B2" d="M144.2,72.3c0,0.8-0.2,1.4-0.7,1.9c-0.5,0.4-1.1,0.7-2,0.7h-1.4v-5h1.5c0.8,0,1.4,0.2,1.8,0.6
			C144,70.9,144.2,71.5,144.2,72.3z M143.4,72.3c0-1.2-0.6-1.8-1.7-1.8H141v3.6h0.6C142.8,74.2,143.4,73.5,143.4,72.3z"/>
		<path fill="#F495B2" d="M149.8,74.8H147v-5h2.8v0.7h-2v1.4h1.9v0.7h-1.9v1.6h2V74.8z"/>
		<path fill="#F495B2" d="M158.9,74.8h-2.8v-5h2.8v0.7h-2v1.4h1.9v0.7h-1.9v1.6h2V74.8z"/>
		<path fill="#F495B2" d="M164.7,74.8l-0.5-1.4h-1.9l-0.5,1.4H161l1.8-5h0.9l1.8,5H164.7z M164,72.8l-0.5-1.4c0-0.1-0.1-0.2-0.1-0.4
			c-0.1-0.2-0.1-0.3-0.1-0.4c-0.1,0.3-0.1,0.6-0.3,0.9l-0.4,1.3H164z"/>
		<path fill="#F495B2" d="M170.8,73.5c0,0.4-0.2,0.8-0.5,1c-0.3,0.3-0.8,0.4-1.3,0.4c-0.6,0-1-0.1-1.4-0.3v-0.8
			c0.2,0.1,0.5,0.2,0.7,0.3c0.3,0.1,0.5,0.1,0.7,0.1c0.3,0,0.6-0.1,0.7-0.2c0.2-0.1,0.2-0.3,0.2-0.5c0-0.2-0.1-0.3-0.2-0.5
			c-0.1-0.1-0.4-0.3-0.9-0.5c-0.4-0.2-0.8-0.4-0.9-0.6c-0.2-0.2-0.3-0.5-0.3-0.9c0-0.4,0.1-0.7,0.4-1c0.3-0.2,0.7-0.4,1.2-0.4
			c0.5,0,0.9,0.1,1.4,0.3l-0.3,0.7c-0.4-0.2-0.8-0.3-1.2-0.3c-0.3,0-0.5,0.1-0.6,0.2c-0.1,0.1-0.2,0.3-0.2,0.5c0,0.1,0,0.2,0.1,0.3
			c0.1,0.1,0.1,0.2,0.3,0.3c0.1,0.1,0.3,0.2,0.7,0.3c0.4,0.2,0.6,0.3,0.8,0.4c0.2,0.1,0.3,0.3,0.4,0.4
			C170.8,73.1,170.8,73.3,170.8,73.5z"/>
		<path fill="#F495B2" d="M174.9,72.1l1.2-2.3h0.9l-1.6,3v1.9h-0.8v-1.9l-1.6-3.1h0.9L174.9,72.1z"/>
	</g>
	<g>
		<path fill="#E63077" d="M206.5,74.4c0-0.2,0-0.3,0.1-0.4c0.1-0.1,0.2-0.1,0.4-0.1c0.2,0,0.3,0,0.4,0.1c0.1,0.1,0.1,0.2,0.1,0.4
			c0,0.2,0,0.3-0.1,0.4c-0.1,0.1-0.2,0.1-0.4,0.1c-0.2,0-0.3,0-0.4-0.1C206.5,74.7,206.5,74.5,206.5,74.4z"/>
		<path fill="#E63077" d="M211.1,70.5c-0.5,0-0.8,0.2-1.1,0.5c-0.3,0.3-0.4,0.8-0.4,1.4c0,0.6,0.1,1.1,0.4,1.4
			c0.3,0.3,0.6,0.5,1.1,0.5c0.2,0,0.4,0,0.6-0.1c0.2,0,0.4-0.1,0.6-0.2v0.7c-0.4,0.1-0.8,0.2-1.3,0.2c-0.7,0-1.3-0.2-1.7-0.7
			c-0.4-0.4-0.6-1.1-0.6-1.9c0-0.5,0.1-1,0.3-1.3c0.2-0.4,0.5-0.7,0.8-0.9c0.4-0.2,0.8-0.3,1.3-0.3c0.5,0,1,0.1,1.4,0.3l-0.3,0.7
			c-0.2-0.1-0.3-0.1-0.5-0.2C211.5,70.5,211.3,70.5,211.1,70.5z"/>
		<path fill="#E63077" d="M218.1,72.3c0,0.8-0.2,1.4-0.6,1.9c-0.4,0.4-1,0.7-1.7,0.7c-0.7,0-1.3-0.2-1.7-0.7
			c-0.4-0.4-0.6-1.1-0.6-1.9c0-0.8,0.2-1.4,0.6-1.9c0.4-0.4,1-0.7,1.7-0.7c0.7,0,1.3,0.2,1.7,0.7C217.9,70.9,218.1,71.5,218.1,72.3z
			 M214.3,72.3c0,0.6,0.1,1.1,0.4,1.4c0.2,0.3,0.6,0.5,1.1,0.5c0.5,0,0.8-0.2,1.1-0.5c0.2-0.3,0.4-0.8,0.4-1.4
			c0-0.6-0.1-1.1-0.4-1.4c-0.2-0.3-0.6-0.5-1.1-0.5c-0.5,0-0.9,0.2-1.1,0.5C214.4,71.2,214.3,71.7,214.3,72.3z"/>
		<path fill="#E63077" d="M219.3,74.4c0-0.2,0-0.3,0.1-0.4c0.1-0.1,0.2-0.1,0.4-0.1c0.2,0,0.3,0,0.4,0.1c0.1,0.1,0.1,0.2,0.1,0.4
			c0,0.2,0,0.3-0.1,0.4c-0.1,0.1-0.2,0.1-0.4,0.1c-0.2,0-0.3,0-0.4-0.1C219.3,74.7,219.3,74.5,219.3,74.4z"/>
		<path fill="#E63077" d="M225.6,69.8V73c0,0.4-0.1,0.7-0.2,1c-0.2,0.3-0.4,0.5-0.7,0.6c-0.3,0.1-0.7,0.2-1.1,0.2
			c-0.6,0-1.1-0.2-1.4-0.5c-0.3-0.3-0.5-0.8-0.5-1.3v-3.2h0.8V73c0,0.4,0.1,0.7,0.3,0.9c0.2,0.2,0.5,0.3,0.9,0.3
			c0.8,0,1.1-0.4,1.1-1.2v-3.1H225.6z"/>
		<path fill="#E63077" d="M231,74.8h-0.9l-1.6-2.2l-0.5,0.4v1.8h-0.8v-4.9h0.8v2.4c0.2-0.3,0.4-0.5,0.7-0.8l1.3-1.6h0.9
			c-0.9,1-1.5,1.7-1.9,2.2L231,74.8z"/>
	</g>
</g>
</svg>
