<?xml version="1.0" encoding="UTF-8" standalone="no"?>
<svg width="14px" height="9px" viewBox="0 0 14 9" version="1.1" xmlns="http://www.w3.org/2000/svg" xmlns:xlink="http://www.w3.org/1999/xlink">
    <!-- Generator: Sketch 3.7.2 (28276) - http://www.bohemiancoding.com/sketch -->
    <title>eye-pink</title>
    <desc>Created with Sketch.</desc>
    <defs>
        <polygon id="path-1" points="13.1858 9 0 9 0 0.0003 13.1858 0.0003 13.1858 9"></polygon>
    </defs>
    <g id="Page-1" stroke="none" stroke-width="1" fill="none" fill-rule="evenodd">
        <g id="Artboard-1" transform="translate(-122.000000, -119.000000)">
            <g id="eye-pink" transform="translate(122.000000, 119.000000)">
                <mask id="mask-2" fill="white">
                    <use xlink:href="#path-1"></use>
                </mask>
                <g id="Clip-2"></g>
                <path d="M6.9648,8.1113 C4.7358,8.1113 2.8198,6.8343 1.6328,5.0013 C2.2918,3.9803 3.1948,3.1053 4.2778,2.5493 C3.9998,3.0223 3.8548,3.5633 3.8548,4.1123 C3.8548,5.8273 5.2498,7.2223 6.9648,7.2223 C8.6798,7.2223 10.0748,5.8273 10.0748,4.1123 C10.0748,3.5633 9.9298,3.0223 9.6528,2.5493 C10.7358,3.1053 11.6378,3.9803 12.2968,5.0013 C11.1108,6.8343 9.1938,8.1113 6.9648,8.1113 M6.9648,2.0023 C7.1458,2.0023 7.2988,2.1543 7.2988,2.3353 C7.2988,2.5153 7.1458,2.6683 6.9648,2.6683 C6.1738,2.6683 5.5218,3.3203 5.5218,4.1123 C5.5218,4.2933 5.3678,4.4453 5.1878,4.4453 C5.0068,4.4453 4.8538,4.2933 4.8538,4.1123 C4.8538,2.9533 5.8058,2.0023 6.9648,2.0023 M13.0468,4.5213 C11.7698,2.4243 9.4298,1.0023 6.9648,1.0023 C5.8898,1.0023 4.8378,1.2733 3.8878,1.7533 C3.2098,1.6343 2.5338,0.0003 2.3538,0.0003 C2.1728,0.0003 2.4808,1.8293 3.1438,2.1853 C2.9948,2.2843 2.8488,2.3863 2.7068,2.4953 C2.0398,2.3693 1.3748,0.7453 1.1938,0.7453 C1.0138,0.7453 1.3798,2.6733 2.1158,3.0033 C2.0238,3.0903 1.9338,3.1813 1.8458,3.2743 C1.8338,3.2733 1.8228,3.2673 1.8118,3.2673 C1.0208,3.2673 0.2148,1.4903 0.0338,1.4903 C-0.1462,1.4903 0.4018,3.6533 1.3308,3.8743 C1.1708,4.0823 1.0198,4.2973 0.8828,4.5213 C0.7998,4.6683 0.7438,4.8273 0.7438,5.0013 C0.7438,5.1743 0.7998,5.3343 0.8828,5.4803 C2.1598,7.5773 4.4998,9.0003 6.9648,9.0003 C9.4298,9.0003 11.7698,7.5843 13.0468,5.4803 C13.1298,5.3343 13.1858,5.1743 13.1858,5.0013 C13.1858,4.8273 13.1298,4.6683 13.0468,4.5213" id="Fill-1" fill="#ED1E79" mask="url(#mask-2)"></path>
            </g>
        </g>
    </g>
</svg>